<svg xmlns="http://www.w3.org/2000/svg" xmlns:xlink="http://www.w3.org/1999/xlink" version="1.1" x="0px" y="0px" viewBox="0 0 100 100" enable-background="new 0 0 100 100" xml:space="preserve" stroke="#63b5da" stroke-width="8"><g><g><path d="M50.276,87.529C50.276,87.529,50.276,87.529,50.276,87.529l-0.405-0.002l-0.367,0.002c-3.375,0-20.428-0.362-25.485-7.503    c-0.461-0.539-1.815-2.783,0.169-9.069c0.924-2.927,3.905-10.654,7.061-18.837c3.627-9.402,7.731-20.042,8.486-22.901V17.884    c-0.088-0.35-0.419-1.547-0.984-2.354c-0.327-0.467-1.007-1.438-0.559-2.3c0.263-0.504,0.776-0.759,1.526-0.759h20.564    c0.75,0,1.263,0.255,1.525,0.759c0.448,0.861-0.231,1.833-0.559,2.3c-0.564,0.807-0.896,2.004-0.983,2.354v11.335    c0.755,2.861,4.862,13.509,8.491,22.918c3.153,8.175,6.132,15.896,7.055,18.82c1.986,6.286,0.632,8.53,0.17,9.069    C70.925,87.167,53.688,87.529,50.276,87.529z M49.87,85.527l0.405,0.002h0c1.991,0,19.564-0.188,24.101-6.697l0.111-0.134h-0.001    c-0.007,0,1.155-1.638-0.582-7.14C73,68.694,70.032,61.001,66.89,52.857c-3.882-10.065-7.896-20.473-8.595-23.27l-0.03-0.242    l0.023-11.798c0.017-0.074,0.408-1.805,1.262-3.077H40.449c0.853,1.271,1.245,3.001,1.262,3.076l0.024,0.218l-0.03,11.823    c-0.699,2.795-4.71,13.195-8.59,23.252C29.97,60.992,27,68.692,26.095,71.559c-1.751,5.547-0.557,7.167-0.544,7.183l0.072,0.091    c4.537,6.51,21.914,6.697,23.88,6.697L49.87,85.527z"></path></g></g></svg>