<?xml version="1.0"?>
<svg width="1000" height="600" xmlns="http://www.w3.org/2000/svg" xmlns:svg="http://www.w3.org/2000/svg" version="1.1">

 <metadata id="metadata7">image/svg+xml</metadata>
 <g class="layer">
  <title>Layer 1</title>
  <g id="layer1">
   <g id="g3221">
    <g id="g3023">
     <path d="m406.39,348.43l2.12,-1.06" fill="none" id="path1464" stroke="#1a1a18" stroke-linecap="round" stroke-linejoin="round" stroke-miterlimit="10" stroke-width="0.4"/>
     <path d="m486.1,175.43l46.01,0m-46.01,0l-46,0" fill="none" id="path1468" stroke="#1a1a18" stroke-linecap="round" stroke-linejoin="round" stroke-miterlimit="10" stroke-width="3.53"/>
     <path d="m486.1,570.24c12.41,0.27 24,-1.88 34.98,-4.88c9.54,-3.01 18.34,-6.53 26.93,-11.66c5.59,-3.03 10.92,-7.02 15.69,-10.6c6.81,-5.64 11.61,-10.39 17.18,-16.75c4.86,-5.92 10.53,-13.9 14.2,-20.99c3.75,-6.89 7.03,-14.39 9.12,-21.62c4.24,-12.71 6.19,-26.96 5.72,-41.66c-0.34,-11.19 -2.26,-21.83 -5.3,-31.92c-2.18,-7.25 -5.4,-14.84 -8.69,-21.2c-3.6,-6.85 -8.39,-14.3 -13.36,-20.35c-3.56,-4.33 -7.47,-8.74 -11.24,-12.09c-6.17,-6 -12.55,-10.69 -18.87,-14.84c-4.55,-2.84 -8.41,-6.62 -11.66,-10.18c-3.85,-4.39 -6.94,-9.33 -9.32,-14.42c-2.12,-5.19 -4.01,-10.01 -4.67,-16.96c-1.46,-11.5 -0.23,-25.46 -0.63,-37.85c0.14,-22.99 -0.29,-46.57 0.21,-69.21c1.26,-6.16 3.7,-11.24 7.63,-14.63c1.13,-0.6 1.89,-2.21 1.06,-3.6m0,0c-2.29,-2.59 -9.46,-0.29 -13.56,-1.06c-11.8,0 -23.61,0 -35.42,0m0,396.47c-12.41,0.27 -23.98,-1.88 -34.98,-4.88c-9.53,-2.93 -18.5,-6.74 -27.13,-11.66c-6.77,-4.15 -13.06,-8.34 -18.88,-13.57c-5.32,-4.5 -9.44,-8.69 -13.99,-14.2c-5.53,-6.32 -11.35,-15.28 -15.26,-22.9c-4.48,-8.69 -7.34,-16.83 -9.97,-26.08c-2.7,-11.5 -4.17,-23.69 -3.61,-36.02c0.52,-10.71 2.34,-21.03 5.31,-30.77c2.18,-7.26 5.4,-14.83 8.69,-21.2c3.6,-6.84 8.38,-14.3 13.36,-20.35c3.55,-4.33 7.47,-8.75 11.23,-12.09c6.17,-6.01 12.56,-10.68 18.87,-14.84c4.55,-2.84 8.42,-6.63 11.67,-10.18c3.85,-4.39 6.93,-9.33 9.32,-14.42c2.12,-5.2 4.01,-10.02 4.67,-16.96c1.46,-11.82 0.23,-26.09 0.63,-38.79c-0.14,-22.68 0.29,-45.95 -0.21,-68.27c-1.25,-6.04 -3.59,-11.05 -7.42,-14.42c-1.16,-0.72 -2.2,-2.22 -1.27,-3.81m0,0c2.29,-2.59 9.46,-0.29 13.55,-1.06c11.81,0 23.62,0 35.42,0" fill="none" id="path1484" stroke="#1a1a18" stroke-linecap="round" stroke-linejoin="round" stroke-miterlimit="10" stroke-width="3.53" transform="matrix(1 0 0 1 0 0)"/>
    </g>
   </g>
  </g>
 </g>
</svg>